<svg xmlns="http://www.w3.org/2000/svg" xmlns:xlink="http://www.w3.org/1999/xlink" viewBox="0 0 462.12 161.41"><defs><style>.cls-1{font-size:69.07px;fill:#2e3192;stroke:#2e3192;stroke-miterlimit:10;font-family:Gabriola;}.cls-2{letter-spacing:-0.01em;}.cls-3{letter-spacing:-0.07em;}.cls-4{letter-spacing:-0.01em;}.cls-5{letter-spacing:0em;}.cls-6{fill:#6a79ef;}.cls-7{fill:#312d63;}.cls-8{fill:#6677d5;}.cls-9{fill:#b3b3b3;}.cls-10{fill:url(#Gradiente_sem_nome_2);}.cls-11{fill:url(#Gradiente_sem_nome_4);}.cls-12{fill:#f8f3f3;}.cls-13{fill:#72def7;}.cls-14{fill:#8fdbe7;}.cls-15{fill:#838aed;}.cls-16{fill:#5326f1;}</style><linearGradient id="Gradiente_sem_nome_2" x1="1.08" y1="66.03" x2="88.07" y2="66.03" gradientUnits="userSpaceOnUse"><stop offset="0" stop-color="blue"/><stop offset="1" stop-color="#29abe2"/></linearGradient><linearGradient id="Gradiente_sem_nome_4" y1="66.03" x2="89.14" y2="66.03" gradientUnits="userSpaceOnUse"><stop offset="0" stop-color="#bdccd4"/><stop offset="1"/></linearGradient></defs><title>Ativo 8</title><g id="Camada_2" data-name="Camada 2"><g id="Camada_1-2" data-name="Camada 1"><text class="cls-1" transform="translate(123.7 54.31)">Lista de<tspan class="cls-2" x="165.15" y="0"> </tspan><tspan class="cls-3" x="176.7" y="0">T</tspan><tspan x="200" y="0">a</tspan><tspan class="cls-4" x="224.7" y="0">r</tspan><tspan x="244.4" y="0">e</tspan><tspan class="cls-2" x="265.68" y="0">f</tspan><tspan class="cls-5" x="281.16" y="0">as </tspan><tspan x="87.21" y="60">Simples</tspan></text><path class="cls-6" d="M36.87,2.28H66.45V15.7H36.87Z"/><path class="cls-7" d="M64.28,16.77H39.05a3.25,3.25,0,0,1-3.25-3.24V4.45a3.24,3.24,0,0,1,3.25-3.24H64.28a3.25,3.25,0,0,1,3.25,3.24v9.08A3.25,3.25,0,0,1,64.28,16.77ZM39.05,3.36A1.1,1.1,0,0,0,38,4.46v9.07a1.09,1.09,0,0,0,1.1,1.09H64.28a1.09,1.09,0,0,0,1.1-1.09V4.46a1.1,1.1,0,0,0-1.1-1.1Z"/><path class="cls-8" d="M96.19,123A2.18,2.18,0,0,1,94,125.13H11.37A2.18,2.18,0,0,1,9.19,123V9.11a2.19,2.19,0,0,1,2.18-2.18H94a2.19,2.19,0,0,1,2.18,2.18Z"/><path class="cls-7" d="M94,126.21H11.37A3.26,3.26,0,0,1,8.12,123V9.11a3.25,3.25,0,0,1,3.25-3.25H94a3.26,3.26,0,0,1,3.25,3.25V123A3.26,3.26,0,0,1,94,126.21ZM11.37,8a1.1,1.1,0,0,0-1.1,1.1V123a1.1,1.1,0,0,0,1.1,1.1H94a1.1,1.1,0,0,0,1.1-1.1V9.11A1.1,1.1,0,0,0,94,8Z"/><path class="cls-6" d="M39.77,2.28H69.34V15.7H39.77Z"/><path class="cls-7" d="M67.17,16.77H41.94a3.25,3.25,0,0,1-3.25-3.24V4.45a3.25,3.25,0,0,1,3.25-3.24H67.17a3.25,3.25,0,0,1,3.25,3.24v9.08A3.25,3.25,0,0,1,67.17,16.77ZM41.94,3.36a1.1,1.1,0,0,0-1.1,1.1v9.07a1.1,1.1,0,0,0,1.1,1.09H67.17a1.09,1.09,0,0,0,1.1-1.09V4.46a1.1,1.1,0,0,0-1.1-1.1Z"/><path class="cls-8" d="M99.08,123a2.18,2.18,0,0,1-2.18,2.17H14.26A2.18,2.18,0,0,1,12.08,123V9.11a2.19,2.19,0,0,1,2.18-2.18H96.9a2.18,2.18,0,0,1,2.17,2.18V123Z"/><path class="cls-9" d="M96.9,126.21H14.26A3.26,3.26,0,0,1,11,123V9.11a3.25,3.25,0,0,1,3.25-3.25H96.9a3.25,3.25,0,0,1,3.25,3.25V123A3.25,3.25,0,0,1,96.9,126.21ZM14.26,8a1.1,1.1,0,0,0-1.1,1.1V123a1.1,1.1,0,0,0,1.1,1.1H96.9A1.1,1.1,0,0,0,98,123V9.11A1.1,1.1,0,0,0,96.9,8Z"/><path class="cls-10" d="M88.06,123a2.17,2.17,0,0,1-2.17,2.17H3.25A2.17,2.17,0,0,1,1.08,123V9.11A2.18,2.18,0,0,1,3.25,6.93H85.9a2.18,2.18,0,0,1,2.17,2.18V123Z"/><path class="cls-11" d="M85.9,126.21H3.25A3.26,3.26,0,0,1,0,123V9.11A3.25,3.25,0,0,1,3.25,5.86H85.9a3.25,3.25,0,0,1,3.24,3.25V123A3.25,3.25,0,0,1,85.9,126.21ZM3.25,8a1.1,1.1,0,0,0-1.1,1.1V123a1.1,1.1,0,0,0,1.1,1.1H85.9A1.1,1.1,0,0,0,87,123V9.11A1.09,1.09,0,0,0,85.9,8Z"/><path class="cls-12" d="M80.88,116.8A2.18,2.18,0,0,1,78.7,119H10.44a2.17,2.17,0,0,1-2.17-2.17V30.5a7,7,0,0,1,1.39-3.84l10-11.9a5.3,5.3,0,0,1,3.56-1.66H78.7a2.18,2.18,0,0,1,2.17,2.17V116.8Z"/><path class="cls-7" d="M78.69,120H10.14a3.25,3.25,0,0,1-3.25-3.24V30.5A8,8,0,0,1,8.54,26l10-11.9A6.36,6.36,0,0,1,22.94,12H78.69A3.26,3.26,0,0,1,82,15.27V116.8A3.25,3.25,0,0,1,78.69,120ZM22.94,14.17a4.27,4.27,0,0,0-2.75,1.28l-10,11.91A5.83,5.83,0,0,0,9.05,30.5v86.3a1.09,1.09,0,0,0,1.09,1.09H78.69a1.09,1.09,0,0,0,1.1-1.09V15.27a1.1,1.1,0,0,0-1.1-1.09H22.94Z"/><path class="cls-13" d="M29.78,2.28H59.36V15.7H29.78Z"/><path class="cls-14" d="M34.08,6.58H59.36V2.28H29.78V15.69h4.3Z"/><path class="cls-7" d="M57.19,16.77H32a3.25,3.25,0,0,1-3.24-3.24V4.45A3.24,3.24,0,0,1,32,1.21H57.19a3.25,3.25,0,0,1,3.25,3.24v9.08A3.25,3.25,0,0,1,57.19,16.77ZM32,3.36a1.09,1.09,0,0,0-1.09,1.1v9.07A1.09,1.09,0,0,0,32,14.62H57.19a1.1,1.1,0,0,0,1.1-1.09V4.46a1.1,1.1,0,0,0-1.1-1.1Z"/><path class="cls-15" d="M33.54,42a7.2,7.2,0,1,1-7.19-7.2A7.18,7.18,0,0,1,33.54,42Z"/><path class="cls-7" d="M26.35,50.25A8.27,8.27,0,1,1,34.62,42,8.28,8.28,0,0,1,26.35,50.25Zm0-14.39A6.12,6.12,0,1,0,32.47,42,6.13,6.13,0,0,0,26.35,35.86Z"/><path class="cls-7" d="M26.35,44.52a1.17,1.17,0,0,1-.84-.4l-5.2-6.44L22,36.33l4.38,5.42,9.87-11.91,1.66,1.38L27.18,44.13A1.08,1.08,0,0,1,26.35,44.52Z"/><path class="cls-7" d="M43.58,40.79H69.52v2.15H43.58Z"/><path class="cls-15" d="M33.54,66.91a7.2,7.2,0,1,1-7.19-7.2A7.19,7.19,0,0,1,33.54,66.91Z"/><path class="cls-7" d="M26.35,75.18a8.28,8.28,0,1,1,8.27-8.27A8.28,8.28,0,0,1,26.35,75.18Zm0-14.39a6.12,6.12,0,1,0,6.12,6.12A6.12,6.12,0,0,0,26.35,60.79Z"/><path class="cls-7" d="M26.35,69.44a1,1,0,0,1-.84-.4l-5.2-6.43L22,61.26l4.38,5.41,9.87-11.9,1.66,1.37L27.18,69.05A1.08,1.08,0,0,1,26.35,69.44Z"/><path class="cls-7" d="M43.58,65.72H69.52v2.15H43.58Z"/><path class="cls-15" d="M33.54,91.83a7.2,7.2,0,1,1-7.19-7.19A7.19,7.19,0,0,1,33.54,91.83Z"/><path class="cls-7" d="M26.35,100.1a8.27,8.27,0,1,1,8.27-8.27A8.28,8.28,0,0,1,26.35,100.1Zm0-14.39a6.12,6.12,0,1,0,6.12,6.12A6.13,6.13,0,0,0,26.35,85.71Z"/><path class="cls-7" d="M26.35,94.37h0a1.07,1.07,0,0,1-.83-.4l-5.2-6.43L22,86.19l4.38,5.41,9.87-11.91,1.66,1.38L27.18,94A1.08,1.08,0,0,1,26.35,94.37Z"/><path class="cls-7" d="M43.58,90.65h12V92.8h-12Z"/><path class="cls-13" d="M107.71,26.34,56.1,78,52.83,88a3,3,0,0,0,3.73,3.73l10-3.26,51.61-51.62Z"/><path class="cls-16" d="M61,73l4.19-4.19L75.7,79.3l-4.19,4.19Z"/><path class="cls-7" d="M55.64,92.91a4,4,0,0,1-3.83-5.28l3.27-10a1.06,1.06,0,0,1,.26-.43L107,25.58a1.1,1.1,0,0,1,1.53,0L119,36.05a1.07,1.07,0,0,1,0,1.52L67.33,89.19a1,1,0,0,1-.43.26l-10,3.26A4,4,0,0,1,55.64,92.91ZM57,78.53l-3.18,9.76a1.89,1.89,0,0,0,2.37,2.38L66,87.49l50.68-50.68-9-9Z"/><path class="cls-7" d="M103.4,30.66l1.52-1.52,10.47,10.47-1.52,1.52Z"/><path class="cls-7" d="M64.67,69.79l1.52-1.52L76.33,78.4l-1.52,1.52Z"/><path class="cls-7" d="M60.48,74,62,72.46,72.13,82.59l-1.52,1.52Z"/><path class="cls-16" d="M81.75,53a3.48,3.48,0,0,0,4.92,0l15-14.95a3.48,3.48,0,0,0-4.92-4.92l-15,14.95A3.49,3.49,0,0,0,81.75,53Z"/><path class="cls-7" d="M84.21,55.06A4.55,4.55,0,0,1,81,47.29L96,32.34a4.55,4.55,0,0,1,6.44,6.43l-15,15A4.54,4.54,0,0,1,84.21,55.06Zm-1.7-2.85a2.4,2.4,0,0,0,3.4,0l15-15a2.4,2.4,0,0,0-1.7-4.1,2.38,2.38,0,0,0-1.7.7l-15,15A2.41,2.41,0,0,0,82.51,52.21Z"/><path class="cls-15" d="M121.55,29.52A4.63,4.63,0,1,0,115,23l-5.32,5.32,6.54,6.55Z"/><path class="cls-7" d="M116.22,35.92a1.08,1.08,0,0,1-.76-.31l-6.54-6.55a1,1,0,0,1-.32-.76,1.09,1.09,0,0,1,.32-.76l5.32-5.32a5.84,5.84,0,0,1,8.07,0,5.7,5.7,0,0,1,0,8.06L117,35.61A1.07,1.07,0,0,1,116.22,35.92Zm-5-7.62,5,5,4.56-4.57a3.53,3.53,0,0,0,0-5,3.63,3.63,0,0,0-5,0Z"/></g></g></svg>